Coordinates
version=1
nRows=9
nColumns=63
inDegrees=yes

Units are S.I. units (second, meters, Newtons, ...)
If the header above contains a line with 'inDegrees', this indicates whether rotational values are in degrees (yes) or radians (no).

endheader
time	pelvis_tilt	pelvis_list	pelvis_rotation	pelvis_tx	pelvis_ty	pelvis_tz	hip_flexion_r	hip_adduction_r	hip_rotation_r	knee_angle_r	knee_angle_r_beta	ankle_angle_r	subtalar_angle_r	mtp_angle_r	hip_flexion_l	hip_adduction_l	hip_rotation_l	knee_angle_l	knee_angle_l_beta	ankle_angle_l	subtalar_angle_l	mtp_angle_l	L5_S1_Flex_Ext	L5_S1_Lat_Bending	L5_S1_axial_rotation	L4_L5_Flex_Ext	L4_L5_Lat_Bending	L4_L5_axial_rotation	L3_L4_Flex_Ext	L3_L4_Lat_Bending	L3_L4_axial_rotation	L2_L3_Flex_Ext	L2_L3_Lat_Bending	L2_L3_axial_rotation	L1_L2_Flex_Ext	L1_L2_Lat_Bending	L1_L2_axial_rotation	L1_T12_Flex_Ext	L1_T12_Lat_Bending	L1_T12_axial_rotation	Abs_r3	Abs_r2	Abs_r1	Abs_t1	Abs_t2	neck_flexion	neck_bending	neck_rotation	arm_flex_r	arm_add_r	arm_rot_r	elbow_flex_r	pro_sup_r	wrist_flex_r	wrist_dev_r	arm_flex_l	arm_add_l	arm_rot_l	elbow_flex_l	pro_sup_l	wrist_flex_l	wrist_dev_l
0.000000	0.241567	-4.734737	86.322761	0.155612	0.940516	0.427872	-5.415637	-0.415266	-18.385264	9.461841	0.165140	32.585789	11.497376	0.000000	-7.856706	-1.373779	11.762339	0.547042	0.009548	26.226730	-12.671602	0.000000	0.122121	0.194512	-0.874228	0.226792	0.258702	-0.928867	0.200633	0.472938	-0.928867	0.139573	0.472938	-0.764949	0.113402	0.396650	-0.710310	0.069780	0.301300	-0.655671	0.872301	2.200364	-4.862194	0.000000	0.000000	26.968172	4.286671	-1.835700	15.654920	-6.909291	81.647029	39.087511	35.672639	10.780093	20.605276	6.321037	-5.559571	50.503632	44.455939	66.115745	12.436752	18.088275
0.016949	0.046031	-4.626670	85.659073	0.156273	0.940038	0.427582	-5.223666	-0.725933	-17.543307	9.887036	0.172561	33.395048	11.038109	0.000000	-8.025521	-1.014665	12.274456	0.520691	0.009088	26.449538	-13.834930	0.000000	0.122236	0.171638	-0.706790	0.227005	0.228279	-0.750964	0.200822	0.417321	-0.750964	0.139704	0.417321	-0.618441	0.113509	0.350004	-0.574267	0.069846	0.265867	-0.530092	0.873121	1.941603	-3.930954	0.000000	0.000000	27.050731	4.079541	-2.621494	14.593384	-6.921561	78.578032	39.203137	36.557166	10.246441	21.759894	6.487512	-5.623609	51.161456	44.493564	67.027160	13.145711	19.224246
0.033898	-0.112602	-4.546908	85.120088	0.156802	0.939644	0.427302	-5.058934	-0.979478	-16.847086	10.249627	0.178890	34.029715	10.665053	0.000000	-8.148746	-0.726374	12.580654	0.504428	0.008804	26.675260	-14.590579	0.000000	0.122397	0.153969	-0.582185	0.227304	0.204779	-0.618571	0.201086	0.374361	-0.618571	0.139888	0.374361	-0.509412	0.113658	0.313974	-0.473025	0.069938	0.238498	-0.436639	0.874270	1.741731	-3.237938	0.000000	0.000000	27.099371	3.940408	-3.105784	13.772195	-6.919758	76.162773	39.281475	38.027345	10.103275	22.554168	6.580471	-5.666160	51.622619	44.520174	67.751026	13.799065	20.224001
0.050847	-0.237802	-4.492651	84.695203	0.157211	0.939329	0.427035	-4.919574	-1.180748	-16.282337	10.555014	0.184220	34.502005	10.365188	0.000000	-8.230753	-0.502555	12.706273	0.496878	0.008672	26.902611	-14.983578	0.000000	0.122564	0.140982	-0.496288	0.227615	0.187506	-0.527306	0.201361	0.342783	-0.527306	0.140079	0.342783	-0.434252	0.113813	0.287490	-0.403234	0.070033	0.218381	-0.372216	0.875466	1.594814	-2.760203	0.000000	0.000000	27.115844	3.863909	-3.321358	13.168459	-6.905572	74.343047	39.326555	39.981207	10.298666	23.031218	6.607939	-5.690454	51.908373	44.537691	68.316197	14.400279	21.089985
0.067797	-0.333042	-4.461102	84.373817	0.157513	0.939085	0.426783	-4.803721	-1.334588	-15.834798	10.808597	0.188646	34.824134	10.125495	0.000000	-8.275915	-0.336860	12.676656	0.496668	0.008668	27.130307	-15.058955	0.000000	0.122699	0.132151	-0.444972	0.227864	0.175761	-0.472783	0.201582	0.321312	-0.472783	0.140233	0.321312	-0.389351	0.113938	0.269482	-0.361540	0.070110	0.204702	-0.333729	0.876427	1.494918	-2.474804	0.000000	0.000000	27.101904	3.844682	-3.301003	12.759285	-6.880691	73.060648	39.342407	42.316784	10.780685	23.234165	6.577941	-5.699722	52.039970	44.548037	68.751527	14.952817	21.824641
0.084746	-0.401794	-4.449464	84.145326	0.157719	0.938907	0.426551	-4.709512	-1.445845	-15.490204	11.015775	0.192262	35.008315	9.932953	0.000000	-8.288605	-0.222940	12.517142	0.502424	0.008769	27.357063	-14.861738	0.000000	0.122761	0.126952	-0.424114	0.227980	0.168847	-0.450621	0.201684	0.308672	-0.450621	0.140304	0.308672	-0.371100	0.113996	0.258881	-0.344593	0.070146	0.196649	-0.318086	0.876871	1.436111	-2.358797	0.000000	0.000000	27.059306	3.877364	-3.077507	12.521778	-6.846807	72.257372	39.333062	44.932108	11.497401	23.206126	6.498500	-5.697196	52.038662	44.553135	69.085869	15.460147	22.430414
0.101695	-0.447530	-4.454938	83.999128	0.157841	0.938787	0.426340	-4.635080	-1.519365	-15.234291	11.181947	0.195162	35.066764	9.774543	0.000000	-8.273196	-0.154445	12.253073	0.512775	0.008950	27.581594	-14.436956	0.000000	0.122712	0.124862	-0.429588	0.227888	0.166066	-0.456437	0.201603	0.303589	-0.456437	0.140247	0.303589	-0.375889	0.113950	0.254618	-0.349040	0.070117	0.193411	-0.322191	0.876517	1.412460	-2.389238	0.000000	0.000000	26.989802	3.956593	-2.683658	12.433046	-6.805607	71.875014	39.302548	47.725212	12.396884	22.990222	6.377641	-5.686105	51.925703	44.554907	69.348076	15.925732	22.909748
0.118644	-0.473722	-4.474726	83.924622	0.157892	0.938720	0.426153	-4.578562	-1.559996	-15.052797	11.312513	0.197441	35.011695	9.637247	0.000000	-8.234060	-0.125026	11.909790	0.526345	0.009186	27.802617	-13.829637	0.000000	0.122511	0.125354	-0.457267	0.227515	0.166721	-0.485847	0.201273	0.304786	-0.485847	0.140018	0.304786	-0.400109	0.113763	0.255622	-0.371530	0.070003	0.194174	-0.342951	0.875082	1.418031	-2.543184	0.000000	0.000000	26.895146	4.077005	-2.152243	12.470197	-6.758781	71.855368	39.254896	50.594126	13.427205	22.629573	6.223390	-5.669682	51.722345	44.555275	69.567003	16.353039	23.265088
0.135593	-0.483841	-4.506032	83.911204	0.157885	0.938698	0.425993	-4.538092	-1.572582	-14.931456	11.412870	0.199192	34.855322	9.508045	0.000000	-8.175570	-0.128336	11.512633	0.541763	0.009456	28.018846	-13.084809	0.000000	0.122119	0.127905	-0.503028	0.226787	0.170114	-0.534467	0.200629	0.310989	-0.534467	0.139570	0.310989	-0.440149	0.113400	0.260825	-0.408710	0.069779	0.198126	-0.377271	0.872284	1.446892	-2.797691	0.000000	0.000000	26.777092	4.233239	-1.516051	12.610337	-6.708019	72.140228	39.194136	53.436884	14.536434	22.167299	6.043769	-5.651156	51.449840	44.556161	69.771503	16.745532	23.498878
